HIERARCHY
ROOT root
{
	OFFSET	0	260	24
	CHANNELS 6  Xposition Yposition Zposition Xrotation Yrotation Zrotation
	JOINT spine_3
	{
		OFFSET	0	81.6	10.2
		CHANNELS 3  Xrotation Yrotation Zrotation
		JOINT spine_4
		{
			OFFSET	0	110.4	14.6
			CHANNELS 3  Xrotation Yrotation Zrotation
			JOINT neck_1
			{
				OFFSET	0	71.8	-50.3
				CHANNELS 3  Xrotation Yrotation Zrotation
				JOINT neck_2
				{
					OFFSET	0	86.2	-25.8
					CHANNELS 3  Xrotation Yrotation Zrotation
					JOINT head_ee
					{
						OFFSET	0	179.8	-8.7
						CHANNELS 3  Xrotation Yrotation Zrotation
						End Site
						{
							OFFSET	1	0	0
						}
					}
				}
			}
			JOINT left_clavicle
			{
				OFFSET	-43.2	22.4	-70.8
				CHANNELS 3  Xrotation Yrotation Zrotation
				JOINT left_shoulder
				{
					OFFSET	-93.9	-5.79999	48.7
					CHANNELS 3  Xrotation Yrotation Zrotation
					JOINT left_elbow
					{
						OFFSET	-291.4	-30.8	15.2
						CHANNELS 3  Xrotation Yrotation Zrotation
						JOINT left_lowarm_twist
						{
							OFFSET	-110.7	-3.89999	13.6
							CHANNELS 3  Xrotation Yrotation Zrotation
							JOINT left_hand
							{
								OFFSET	-110.7	-3.89999	13.6
								CHANNELS 3  Xrotation Yrotation Zrotation
								JOINT left_ee
								{
									OFFSET	-80.8	-5.10001	12.1
									CHANNELS 3  Xrotation Yrotation Zrotation
									End Site
									{
										OFFSET	1	0	0
									}
								}
							}
						}
					}
				}
			}
			JOINT right_clavicle
			{
				OFFSET	43.2	22.4	-70.8
				CHANNELS 3  Xrotation Yrotation Zrotation
				JOINT right_shoulder
				{
					OFFSET	93.9	-5.79999	48.7
					CHANNELS 3  Xrotation Yrotation Zrotation
					JOINT right_elbow
					{
						OFFSET	291.4	-30.8	15.2
						CHANNELS 3  Xrotation Yrotation Zrotation
						JOINT right_lowarm_twist
						{
							OFFSET	110.7	-3.89999	13.6
							CHANNELS 3  Xrotation Yrotation Zrotation
							JOINT right_hand
							{
								OFFSET	110.7	-3.89999	13.6
								CHANNELS 3  Xrotation Yrotation Zrotation
								JOINT right_ee
								{
									OFFSET	80.8	-5.10001	12.1
									CHANNELS 3  Xrotation Yrotation Zrotation
									End Site
									{
										OFFSET	1	0	0
									}
								}
							}
						}
					}
				}
			}
		}
	}
	JOINT spine_2
	{
		OFFSET	0	-124.9	-9.1
		CHANNELS 3  Xrotation Yrotation Zrotation
		JOINT spine_1
		{
			OFFSET	0	-112	10
			CHANNELS 3  Xrotation Yrotation Zrotation
			JOINT left_hip
			{
				OFFSET	-82.8	-137.5	0.300001
				CHANNELS 3  Xrotation Yrotation Zrotation
				JOINT left_knee
				{
					OFFSET	-28.2	-396.7	2.2
					CHANNELS 3  Xrotation Yrotation Zrotation
					JOINT left_ankle
					{
						OFFSET	-11.7	-411.3	35.4
						CHANNELS 3  Xrotation Yrotation Zrotation
						JOINT left_toes
						{
							OFFSET	0	-60	-88.6
							CHANNELS 3  Xrotation Yrotation Zrotation
							JOINT left_foot_ee
							{
								OFFSET	-22.5	-16.5	-42.2
								CHANNELS 3  Xrotation Yrotation Zrotation
								End Site
								{
									OFFSET	1	0	0
								}
							}
						}
					}
				}
			}
			JOINT right_hip
			{
				OFFSET	82.8	-137.5	0.300001
				CHANNELS 3  Xrotation Yrotation Zrotation
				JOINT right_knee
				{
					OFFSET	28.2	-396.7	2.2
					CHANNELS 3  Xrotation Yrotation Zrotation
					JOINT right_ankle
					{
						OFFSET	11.7	-411.3	35.4
						CHANNELS 3  Xrotation Yrotation Zrotation
						JOINT right_toes
						{
							OFFSET	0	-60	-88.6
							CHANNELS 3  Xrotation Yrotation Zrotation
							JOINT right_foot_ee
							{
								OFFSET	22.5	-16.5	-42.2
								CHANNELS 3  Xrotation Yrotation Zrotation
								End Site
								{
									OFFSET	1	0	0
								}
							}
						}
					}
				}
			}
		}
	}
}
MOTION
Frames: 13
Frame Time: 0.02
1372.05 701.618 -1475.22 -3.79865058299 21.6220898263 1.91733970877 3.24833 -0.255605 -2.56617 3.23974 -0.657551 -2.49368 -7.70536 9.07053 0.0800769 -7.72556 16.8569 2.02631 -0.0 0.0 -0.0 8.91811 16.9707 16.1294 -5.79463 -25.5809 49.0945 2.47462 -50.7859 1.1748 6.25226 0.177956 -0.77842 -0.428317 -3.38414 -4.31623 -0.0 0.0 -0.0 7.9923 -1.62228 -15.5383 -36.7811 24.3254 -53.2506 0.287296 8.1 -0.0203417 -54.3239 4.58648 -4.88972 -4.3634 -28.4437 12.6046 0.0 0.0 0.0 -3.24639 0.506635 2.52864 -3.2497 0.666462 2.49132 1.57235 -17.8184 2.91652 -14.1327 0.319382 2.13985 42.8638 24.86 -5.42945 -2.42181 0.0 0.0 -0.0 0.0 -0.0 44.4503 30.0366 -12.9175 2.08999 0.0916902 0.30758 -20.2323 -19.1492 -3.09312 -1.88556 0.0 0.0 0.0 0.0 0.0 
1352.07314611 700.989 -1502.08982338 -4.19309725453 22.5913451488 1.64233082953 2.87199 -0.294354 -2.25672 2.86546 -0.646981 -2.18197 -7.91673 8.48694 -1.12318 -7.93498 16.6316 0.735165 -0.0 0.0 -0.0 9.08955 17.2644 16.3773 -7.34506 -24.9851 48.8588 2.4079 -50.0173 1.1234 4.53863 0.137655 -0.563236 -0.166724 -3.6874 -2.6832 -0.0 0.0 -0.0 8.06762 -0.969444 -15.7031 -36.67 24.6595 -52.5913 0.345916 9.72376 -0.0294237 -53.9317 4.53918 -4.87257 -4.40415 -27.7354 13.3087 0.0 0.0 0.0 -2.87048 0.543815 2.20993 -2.87293 0.683303 2.17087 1.21063 -17.8148 5.22785 -15.9983 0.321824 2.42606 42.1615 24.6531 -5.35883 -2.9965 0.0 0.0 -0.0 0.0 -0.0 43.9049 30.2217 -13.552 -2.34116 -0.0892903 -0.34817 -19.0676 -17.4142 -2.89887 -0.103358 0.0 0.0 0.0 0.0 0.0 
1352.41824382 700.989 -1502.34298378 -4.17127107342 21.8608876721 1.58463089839 2.87199 -0.294354 -2.25672 2.86546 -0.646981 -2.18197 -7.91673 8.48694 -1.12318 -7.93498 16.6316 0.735165 -0.0 0.0 -0.0 9.08955 17.2644 16.3773 -7.34506 -24.9851 48.8588 2.4079 -50.0173 1.1234 4.53863 0.137655 -0.563236 -0.166724 -3.6874 -2.6832 -0.0 0.0 -0.0 8.06762 -0.969444 -15.7031 -36.67 24.6595 -52.5913 0.345916 9.72376 -0.0294237 -53.9317 4.53918 -4.87257 -4.40415 -27.7354 13.3087 0.0 0.0 0.0 -2.87048 0.543815 2.20993 -2.87293 0.683303 2.17087 1.21063 -17.8148 5.22785 -15.9983 0.321824 2.42606 42.1615 24.6531 -5.35883 -2.9965 0.0 0.0 -0.0 0.0 -0.0 43.9049 30.2217 -13.552 -2.34116 -0.0892903 -0.34817 -19.0676 -17.4142 -2.89887 -0.103358 0.0 0.0 0.0 0.0 0.0 
1352.80731678 700.989 -1502.62038763 -4.1479630972 21.0453422689 1.52090420703 2.87199 -0.294354 -2.25672 2.86546 -0.646981 -2.18197 -7.91673 8.48694 -1.12318 -7.93498 16.6316 0.735165 -0.0 0.0 -0.0 9.08955 17.2644 16.3773 -7.34506 -24.9851 48.8588 2.4079 -50.0173 1.1234 4.53863 0.137655 -0.563236 -0.166724 -3.6874 -2.6832 -0.0 0.0 -0.0 8.06762 -0.969444 -15.7031 -36.67 24.6595 -52.5913 0.345916 9.72376 -0.0294237 -53.9317 4.53918 -4.87257 -4.40415 -27.7354 13.3087 0.0 0.0 0.0 -2.87048 0.543815 2.20993 -2.87293 0.683303 2.17087 1.21063 -17.8148 5.22785 -15.9983 0.321824 2.42606 42.1615 24.6531 -5.35883 -2.9965 0.0 0.0 -0.0 0.0 -0.0 43.9049 30.2217 -13.552 -2.34116 -0.0892903 -0.34817 -19.0676 -17.4142 -2.89887 -0.103358 0.0 0.0 0.0 0.0 0.0 
1353.2427572 700.989 -1502.92107793 -4.12342354489 20.1421569202 1.45114011959 2.87199 -0.294354 -2.25672 2.86546 -0.646981 -2.18197 -7.91673 8.48694 -1.12318 -7.93498 16.6316 0.735165 -0.0 0.0 -0.0 9.08955 17.2644 16.3773 -7.34506 -24.9851 48.8588 2.4079 -50.0173 1.1234 4.53863 0.137655 -0.563236 -0.166724 -3.6874 -2.6832 -0.0 0.0 -0.0 8.06762 -0.969444 -15.7031 -36.67 24.6595 -52.5913 0.345916 9.72376 -0.0294237 -53.9317 4.53918 -4.87257 -4.40415 -27.7354 13.3087 0.0 0.0 0.0 -2.87048 0.543815 2.20993 -2.87293 0.683303 2.17087 1.21063 -17.8148 5.22785 -15.9983 0.321824 2.42606 42.1615 24.6531 -5.35883 -2.9965 0.0 0.0 -0.0 0.0 -0.0 43.9049 30.2217 -13.552 -2.34116 -0.0892903 -0.34817 -19.0676 -17.4142 -2.89887 -0.103358 0.0 0.0 0.0 0.0 0.0 
1353.85484735 700.989 -1503.32691232 -4.09151766843 18.8886192623 1.35563643925 2.87199 -0.294354 -2.25672 2.86546 -0.646981 -2.18197 -7.91673 8.48694 -1.12318 -7.93498 16.6316 0.735165 -0.0 0.0 -0.0 9.08955 17.2644 16.3773 -7.34506 -24.9851 48.8588 2.4079 -50.0173 1.1234 4.53863 0.137655 -0.563236 -0.166724 -3.6874 -2.6832 -0.0 0.0 -0.0 8.06762 -0.969444 -15.7031 -36.67 24.6595 -52.5913 0.345916 9.72376 -0.0294237 -53.9317 4.53918 -4.87257 -4.40415 -27.7354 13.3087 0.0 0.0 0.0 -2.87048 0.543815 2.20993 -2.87293 0.683303 2.17087 1.21063 -17.8148 5.22785 -15.9983 0.321824 2.42606 42.1615 24.6531 -5.35883 -2.9965 0.0 0.0 -0.0 0.0 -0.0 43.9049 30.2217 -13.552 -2.34116 -0.0892903 -0.34817 -19.0676 -17.4142 -2.89887 -0.103358 0.0 0.0 0.0 0.0 0.0 
1354.81269285 700.989 -1503.92430877 -4.04716783429 16.9616411812 1.21155816125 2.87199 -0.294354 -2.25672 2.86546 -0.646981 -2.18197 -7.91673 8.48694 -1.12318 -7.93498 16.6316 0.735165 -0.0 0.0 -0.0 9.08955 17.2644 16.3773 -7.34506 -24.9851 48.8588 2.4079 -50.0173 1.1234 4.53863 0.137655 -0.563236 -0.166724 -3.6874 -2.6832 -0.0 0.0 -0.0 8.06762 -0.969444 -15.7031 -36.67 24.6595 -52.5913 0.345916 9.72376 -0.0294237 -53.9317 4.53918 -4.87257 -4.40415 -27.7354 13.3087 0.0 0.0 0.0 -2.87048 0.543815 2.20993 -2.87293 0.683303 2.17087 1.21063 -17.8148 5.22785 -15.9983 0.321824 2.42606 42.1615 24.6531 -5.35883 -2.9965 0.0 0.0 -0.0 0.0 -0.0 43.9049 30.2217 -13.552 -2.34116 -0.0892903 -0.34817 -19.0676 -17.4142 -2.89887 -0.103358 0.0 0.0 0.0 0.0 0.0 
1355.94165749 700.989 -1504.57274096 -4.00276017132 14.7390934606 1.04899845493 2.87199 -0.294354 -2.25672 2.86546 -0.646981 -2.18197 -7.91673 8.48694 -1.12318 -7.93498 16.6316 0.735165 -0.0 0.0 -0.0 9.08955 17.2644 16.3773 -7.34506 -24.9851 48.8588 2.4079 -50.0173 1.1234 4.53863 0.137655 -0.563236 -0.166724 -3.6874 -2.6832 -0.0 0.0 -0.0 8.06762 -0.969444 -15.7031 -36.67 24.6595 -52.5913 0.345916 9.72376 -0.0294237 -53.9317 4.53918 -4.87257 -4.40415 -27.7354 13.3087 0.0 0.0 0.0 -2.87048 0.543815 2.20993 -2.87293 0.683303 2.17087 1.21063 -17.8148 5.22785 -15.9983 0.321824 2.42606 42.1615 24.6531 -5.35883 -2.9965 0.0 0.0 -0.0 0.0 -0.0 43.9049 30.2217 -13.552 -2.34116 -0.0892903 -0.34817 -19.0676 -17.4142 -2.89887 -0.103358 0.0 0.0 0.0 0.0 0.0 
1357.41230371 700.989 -1505.33311919 -3.95617489643 11.9125431392 0.846944512332 2.87199 -0.294354 -2.25672 2.86546 -0.646981 -2.18197 -7.91673 8.48694 -1.12318 -7.93498 16.6316 0.735165 -0.0 0.0 -0.0 9.08955 17.2644 16.3773 -7.34506 -24.9851 48.8588 2.4079 -50.0173 1.1234 4.53863 0.137655 -0.563236 -0.166724 -3.6874 -2.6832 -0.0 0.0 -0.0 8.06762 -0.969444 -15.7031 -36.67 24.6595 -52.5913 0.345916 9.72376 -0.0294237 -53.9317 4.53918 -4.87257 -4.40415 -27.7354 13.3087 0.0 0.0 0.0 -2.87048 0.543815 2.20993 -2.87293 0.683303 2.17087 1.21063 -17.8148 5.22785 -15.9983 0.321824 2.42606 42.1615 24.6531 -5.35883 -2.9965 0.0 0.0 -0.0 0.0 -0.0 43.9049 30.2217 -13.552 -2.34116 -0.0892903 -0.34817 -19.0676 -17.4142 -2.89887 -0.103358 0.0 0.0 0.0 0.0 0.0 
1307.1688368 714.6 -1617.19834082 -2.78958126859 18.3298930065 0.719947871839 2.54296 0.381641 -1.13377 2.54122 0.197807 -1.1798 -2.67136 5.43779 -5.12451 -2.47285 13.8689 -4.61181 -0.0 0.0 -0.0 8.79331 19.6461 15.5867 -19.0347 -20.6478 48.9263 1.83808 -42.3147 0.71142 -1.70256 -0.0630917 0.208254 0.438545 0.485966 3.13107 -0.0 0.0 -0.0 8.05209 2.96671 -15.7218 -29.2459 29.6513 -56.7629 0.591626 16.3346 -0.0849109 -53.1885 4.44986 -4.83918 -4.27807 -26.4271 13.463 0.0 0.0 0.0 -2.54264 -0.239645 1.17202 -2.54339 -0.164586 1.18489 2.41884 -14.1638 4.29478 -24.7048 0.210204 3.75606 42.6 25.5877 -5.43127 0.136922 -0.0 -0.0 -0.0 0.0 -0.0 39.8394 32.6512 -14.2262 -12.5461 -0.309974 -1.8966 -15.7662 -9.98011 -2.36529 -0.877995 0.0 0.0 0.0 0.0 0.0 
1233.25840705 712.307 -1681.0698587 -4.1242277981 29.2466333637 3.54854051963 2.60036 0.157684 -0.64603 2.59978 0.0536789 -0.662825 2.58221 4.6237 -5.0668 2.8586 12.374 -5.30367 -0.0 0.0 -0.0 8.35518 24.1821 14.3048 -22.5003 -16.3715 50.389 1.09032 -28.3733 0.275632 -8.59041 -0.380661 1.02913 0.0121193 3.83083 1.68551 -0.0 0.0 -0.0 8.59839 3.20706 -16.8496 -21.0132 37.4776 -58.043 0.596067 16.4506 -0.0861642 -54.5061 4.60849 -4.89757 -4.7632 -24.7596 17.4428 0.0 0.0 0.0 -2.60025 -0.078557 0.660339 -2.60049 -0.0363797 0.663999 10.5822 -13.237 2.58067 -40.7791 -0.517075 6.10699 32.4312 22.1232 -4.31366 0.830737 -0.0 -0.0 -0.0 0.0 -0.0 34.4666 33.389 -13.7817 -15.1911 -0.321911 -2.30221 6.52847 -6.07966 0.939127 0.26428 -0.0 -0.0 0.0 0.0 0.0 
1242.97635942 712.307 -1687.29844282 -4.02391911183 26.5892813835 3.33435817546 2.60036 0.157684 -0.64603 2.59978 0.0536789 -0.662825 2.58221 4.6237 -5.0668 2.8586 12.374 -5.30367 -0.0 0.0 -0.0 8.35518 24.1821 14.3048 -22.5003 -16.3715 50.389 1.09032 -28.3733 0.275632 -8.59041 -0.380661 1.02913 0.0121193 3.83083 1.68551 -0.0 0.0 -0.0 8.59839 3.20706 -16.8496 -21.0132 37.4776 -58.043 0.596067 16.4506 -0.0861642 -54.5061 4.60849 -4.89757 -4.7632 -24.7596 17.4428 0.0 0.0 0.0 -2.60025 -0.078557 0.660339 -2.60049 -0.0363797 0.663999 10.5822 -13.237 2.58067 -40.7791 -0.517075 6.10699 32.4312 22.1232 -4.31366 0.830737 -0.0 -0.0 -0.0 0.0 -0.0 34.4666 33.389 -13.7817 -15.1911 -0.321911 -2.30221 6.52847 -6.07966 0.939127 0.26428 -0.0 -0.0 0.0 0.0 0.0 
1252.23514155 712.307 -1692.66348759 -3.94259941832 24.1254897565 3.1445196668 2.60036 0.157684 -0.64603 2.59978 0.0536789 -0.662825 2.58221 4.6237 -5.0668 2.8586 12.374 -5.30367 -0.0 0.0 -0.0 8.35518 24.1821 14.3048 -22.5003 -16.3715 50.389 1.09032 -28.3733 0.275632 -8.59041 -0.380661 1.02913 0.0121193 3.83083 1.68551 -0.0 0.0 -0.0 8.59839 3.20706 -16.8496 -21.0132 37.4776 -58.043 0.596067 16.4506 -0.0861642 -54.5061 4.60849 -4.89757 -4.7632 -24.7596 17.4428 0.0 0.0 0.0 -2.60025 -0.078557 0.660339 -2.60049 -0.0363797 0.663999 10.5822 -13.237 2.58067 -40.7791 -0.517075 6.10699 32.4312 22.1232 -4.31366 0.830737 -0.0 -0.0 -0.0 0.0 -0.0 34.4666 33.389 -13.7817 -15.1911 -0.321911 -2.30221 6.52847 -6.07966 0.939127 0.26428 -0.0 -0.0 0.0 0.0 0.0 
